<svg width="20" height="21" viewBox="0 0 20 21" fill="none" xmlns="http://www.w3.org/2000/svg">
<path id="Vector" d="M13.6548 16.8733L13.8335 16.3651L14.1696 15.9916C14.3884 15.7484 14.6488 15.5573 14.934 15.4273C15.2186 15.2975 15.5232 15.2306 15.8299 15.2291H15.8344C16.2848 15.2291 16.7291 15.3704 17.1111 15.6408C17.4937 15.9116 17.7982 16.3012 17.9795 16.765C18.161 17.2291 18.2091 17.742 18.1161 18.2372C18.0231 18.7324 17.7945 19.1816 17.4654 19.5302C17.1368 19.8783 16.7234 20.1101 16.2802 20.2035C15.8374 20.2968 15.3779 20.2493 14.9578 20.065C14.5372 19.8804 14.1705 19.5647 13.9095 19.1508C13.6483 18.7368 13.5065 18.2458 13.5064 17.7402C13.5071 17.4434 13.5576 17.1498 13.6548 16.8733ZM5.39196 11.2892L5.22509 11.8252L4.92955 12.2081C4.6209 12.6079 4.20856 12.8901 3.75338 13.0242C3.29879 13.1582 2.8169 13.1402 2.37128 12.9717C1.92499 12.8031 1.53117 12.4893 1.24914 12.0656C0.96679 11.6413 0.8125 11.1302 0.8125 10.6025C0.8125 10.0748 0.96679 9.56369 1.24914 9.13943C1.53117 8.71564 1.92499 8.4019 2.37128 8.23323C2.8169 8.06481 3.29879 8.04679 3.75338 8.18076C4.20856 8.31489 4.6209 8.59707 4.92955 8.99692L5.22849 9.3842L5.39196 9.90925C5.53135 10.357 5.53135 10.8415 5.39196 11.2892ZM14.183 5.13642L13.8465 4.76081L13.6714 4.27427C13.4524 3.66601 13.4548 2.99144 13.678 2.38506C13.9009 1.7793 14.3241 1.29452 14.8535 1.01457C15.3813 0.735418 15.9837 0.675557 16.5472 0.842684L16.7602 0.124458L16.5472 0.842684C17.1119 1.01016 17.6091 1.39762 17.9333 1.94334C18.2582 2.48999 18.3819 3.15058 18.2749 3.79461C18.1679 4.43836 17.8402 5.00727 17.3677 5.3961C16.8966 5.78385 16.3139 5.96684 15.7327 5.92024C15.1511 5.87361 14.5975 5.59907 14.183 5.13642Z" stroke="white" stroke-width="1.5"/>
</svg>
