<svg width="15" height="15" viewBox="0 0 15 15" fill="none" xmlns="http://www.w3.org/2000/svg">
<path id="Vector" d="M1.27126 14.5C1.16468 14.4998 1.0593 14.4774 0.961831 14.4343C0.86436 14.3912 0.776927 14.3282 0.705091 14.2495C0.631957 14.1714 0.57615 14.0787 0.541332 13.9776C0.506513 13.8764 0.493468 13.769 0.503053 13.6624L0.691263 11.5923L9.38583 2.89845L12.103 5.61557L3.41072 14.3087L1.34117 14.4969C1.31793 14.4991 1.2946 14.5001 1.27126 14.5ZM12.6453 5.0723L9.92895 2.35518L11.5583 0.725366C11.6297 0.653922 11.7144 0.597244 11.8076 0.558574C11.9009 0.519904 12.0009 0.5 12.1018 0.5C12.2028 0.5 12.3027 0.519904 12.396 0.558574C12.4893 0.597244 12.574 0.653922 12.6453 0.725366L14.2747 2.35518C14.3461 2.42654 14.4028 2.51129 14.4414 2.60457C14.4801 2.69786 14.5 2.79785 14.5 2.89883C14.5 2.99981 14.4801 3.0998 14.4414 3.19309C14.4028 3.28637 14.3461 3.37112 14.2747 3.44249L12.6461 5.07153L12.6453 5.0723Z" fill="white"/>
</svg>
