<svg width="20" height="14" viewBox="0 0 20 14" fill="none" xmlns="http://www.w3.org/2000/svg">
<path id="Vector" d="M0.915636 1.40094L0.913334 1.40313C0.784494 1.52552 0.682915 1.66911 0.612959 1.82542C0.536169 2.00354 0.50094 2.1761 0.50094 2.35129L0.500942 11.6468L0.500938 11.6478C0.500593 11.8231 0.536793 11.9974 0.60815 12.1607C0.679537 12.3241 0.785025 12.474 0.919781 12.6011L0.922377 12.6035C1.05494 12.7303 1.21395 12.832 1.39079 12.9015C1.56767 12.9711 1.75807 13.0067 1.95073 13.0059H1.95292H13.6648C13.8144 13.0059 13.9504 12.9425 14.0396 12.8414C14.0397 12.8413 14.0398 12.8411 14.0399 12.841L18.9189 7.26479C18.9189 7.26476 18.919 7.26473 18.919 7.26469C19.0556 7.10835 19.0556 6.88878 18.919 6.73243C18.919 6.7324 18.9189 6.73237 18.9189 6.73233L14.0406 1.15694C14.0404 1.1567 14.0402 1.15647 14.04 1.15623C13.9507 1.05558 13.8144 0.992191 13.6648 0.992191L1.95292 0.992192L1.95202 0.99219C1.75762 0.991841 1.56561 1.02832 1.38736 1.09896C1.20914 1.16958 1.049 1.27262 0.915636 1.40094Z" stroke="white"/>
</svg>
