<svg width="14" height="12" viewBox="0 0 14 12" fill="none" xmlns="http://www.w3.org/2000/svg">
<path id="Vector" d="M9.09989 10.5357C9.19728 10.5358 9.30272 10.5811 9.39098 10.6832C9.48038 10.7865 9.54055 10.9364 9.54862 11.1046C9.55668 11.2727 9.51134 11.4328 9.42992 11.5519C9.3511 11.6672 9.24992 11.7291 9.15369 11.7454L9.09108 11.75H0.699641C0.602252 11.7499 0.496816 11.7046 0.408555 11.6026C0.319159 11.4992 0.258982 11.3493 0.250917 11.1811C0.242857 11.013 0.2882 10.8529 0.369613 10.7338C0.448441 10.6185 0.549616 10.5567 0.645852 10.5403L0.708442 10.5357H9.09989ZM13.3004 7.10714C13.3977 7.10728 13.5032 7.15256 13.5914 7.25458C13.6808 7.35791 13.741 7.50784 13.7491 7.67603C13.7571 7.84413 13.7118 8.00425 13.6304 8.12334C13.5516 8.23865 13.4504 8.30048 13.3542 8.31684L13.2915 8.32143H0.699641C0.602252 8.3213 0.496816 8.27601 0.408555 8.17399C0.319159 8.07066 0.258982 7.92073 0.250917 7.75255C0.242857 7.58444 0.2882 7.42432 0.369613 7.30523C0.448439 7.18992 0.549613 7.12809 0.645849 7.11173L0.708446 7.10714H13.3004ZM13.3005 3.67857C13.3979 3.67875 13.5032 3.72404 13.5914 3.82601C13.6808 3.92934 13.741 4.07927 13.7491 4.24745C13.7571 4.41556 13.7118 4.57568 13.6304 4.69477C13.5516 4.81008 13.4504 4.87191 13.3542 4.88827L13.2916 4.89286H0.699641C0.602252 4.89272 0.496816 4.84744 0.408555 4.74542C0.319159 4.64209 0.258982 4.49216 0.250917 4.32397C0.242857 4.15587 0.2882 3.99575 0.369613 3.87666C0.448439 3.76135 0.549611 3.69951 0.645847 3.68316L0.708446 3.67857L13.3004 3.67857C13.3004 3.67857 13.3005 3.67857 13.3005 3.67857ZM13.3005 0.25C13.3979 0.250176 13.5032 0.295469 13.5914 0.397438C13.6808 0.500769 13.741 0.650694 13.7491 0.818883C13.7571 0.986989 13.7118 1.14711 13.6304 1.2662C13.5516 1.38151 13.4504 1.44334 13.3542 1.4597L13.2916 1.46429H0.699492C0.602145 1.46411 0.496771 1.41881 0.408555 1.31685C0.319159 1.21352 0.258982 1.06359 0.250917 0.895403C0.242857 0.727297 0.2882 0.56718 0.369613 0.448087C0.448439 0.332778 0.549611 0.270943 0.645847 0.254585L0.708446 0.25H13.3005Z" stroke="white" stroke-width="0.5"/>
</svg>
