<svg width="14" height="13" viewBox="0 0 14 13" fill="none" xmlns="http://www.w3.org/2000/svg">
<g id="Group 48095463">
<circle id="Ellipse 245" cx="6.99978" cy="5.77713" r="3.61111" fill="white"/>
<path id="Vector" d="M13.5 6.13889L12.0582 4.5077L12.2591 2.35032L10.1259 1.8709L9.00909 0L7 0.853598L4.99091 0L3.87409 1.86505L1.74091 2.33862L1.94182 4.50185L0.5 6.13889L1.94182 7.77008L1.74091 9.93331L3.87409 10.4127L4.99091 12.2778L7 11.4183L9.00909 12.2719L10.1259 10.4069L12.2591 9.92746L12.0582 7.77008L13.5 6.13889ZM5.45182 8.48336L4.04545 7.08018C3.99067 7.0261 3.94722 6.96185 3.91756 6.89112C3.88791 6.82039 3.87265 6.74457 3.87265 6.668C3.87265 6.59143 3.88791 6.51561 3.91756 6.44488C3.94722 6.37416 3.99067 6.30991 4.04545 6.25582L4.08682 6.21489C4.31727 5.98688 4.69545 5.98688 4.92591 6.21489L5.87727 7.16204L8.92045 4.14521C9.15091 3.9172 9.52909 3.9172 9.75955 4.14521L9.80091 4.18614C10.0314 4.41415 10.0314 4.78249 9.80091 5.0105L6.30273 8.48336C6.06045 8.71138 5.68818 8.71138 5.45182 8.48336Z" fill="#0047FF"/>
</g>
</svg>
