<svg width="137" height="42" viewBox="0 0 137 42" fill="none" xmlns="http://www.w3.org/2000/svg">
<path id="Vector 11" d="M1.1875 34.0303L9.46217 22.8352C9.84719 22.3143 10.6054 22.2577 11.0634 22.7158L29.0131 40.6655C29.4393 41.0916 30.1347 41.077 30.5425 40.6332L47.2386 22.4639C47.5713 22.1018 48.1095 22.0162 48.5382 22.2573L64.2081 31.0717C64.5474 31.2625 64.9641 31.2519 65.2933 31.044L84.3002 19.0397C84.658 18.8137 85.1161 18.8223 85.4651 19.0617L102.601 30.812C103.066 31.1311 103.7 31.0295 104.042 30.581L118.662 11.4242C118.75 11.3096 118.859 11.2141 118.985 11.1435L135.747 1.71484" stroke="#C70000" stroke-width="1.58929" stroke-linecap="round"/>
</svg>
