<svg width="35" height="22" viewBox="0 0 35 22" fill="none" xmlns="http://www.w3.org/2000/svg">
<g id="Group 48095693">
<path id="Vector" d="M14.9604 5.38501C14.9132 5.24618 14.8264 5.12419 14.7108 5.0341C14.5951 4.94402 14.4555 4.88978 14.3094 4.87808L10.0336 4.53837L8.18332 0.443167C8.12439 0.311269 8.02855 0.19924 7.90735 0.120603C7.78615 0.0419653 7.64479 7.93987e-05 7.50031 1.12769e-07C7.35583 -7.91732e-05 7.21441 0.0416516 7.09313 0.120156C6.97185 0.198661 6.87588 0.310584 6.81681 0.442417L4.96655 4.53837L0.690774 4.87808C0.547114 4.88946 0.409776 4.94198 0.295188 5.02936C0.1806 5.11674 0.093615 5.23527 0.0446398 5.37079C-0.00433531 5.5063 -0.013227 5.65305 0.0190285 5.79349C0.0512841 5.93392 0.123321 6.06209 0.226521 6.16266L3.38629 9.2425L2.26878 14.0809C2.23485 14.2273 2.24573 14.3806 2.3 14.5208C2.35427 14.661 2.44943 14.7816 2.57314 14.8671C2.69684 14.9525 2.84338 14.9988 2.99373 15C3.14407 15.0011 3.2913 14.9571 3.41629 14.8735L7.50006 12.1514L11.5838 14.8735C11.7116 14.9583 11.8623 15.002 12.0156 14.9986C12.1689 14.9953 12.3175 14.945 12.4414 14.8547C12.5653 14.7644 12.6586 14.6383 12.7087 14.4934C12.7588 14.3484 12.7633 14.1917 12.7216 14.0441L11.3498 9.24475L14.7519 6.18366C14.9746 5.98268 15.0564 5.66922 14.9604 5.38501Z" fill="url(#paint0_linear_301_2771)"/>
<path id="Vector_2" d="M34.9604 5.38501C34.9132 5.24618 34.8264 5.12419 34.7108 5.0341C34.5951 4.94402 34.4555 4.88978 34.3094 4.87808L30.0336 4.53837L28.1833 0.443167C28.1244 0.311269 28.0285 0.19924 27.9074 0.120603C27.7862 0.0419653 27.6448 7.93987e-05 27.5003 1.12769e-07C27.3558 -7.91732e-05 27.2144 0.0416516 27.0931 0.120156C26.9718 0.198661 26.8759 0.310584 26.8168 0.442417L24.9665 4.53837L20.6908 4.87808C20.5471 4.88946 20.4098 4.94198 20.2952 5.02936C20.1806 5.11674 20.0936 5.23527 20.0446 5.37079C19.9957 5.5063 19.9868 5.65305 20.019 5.79349C20.0513 5.93392 20.1233 6.06209 20.2265 6.16266L23.3863 9.2425L22.2688 14.0809C22.2349 14.2273 22.2457 14.3806 22.3 14.5208C22.3543 14.661 22.4494 14.7816 22.5731 14.8671C22.6968 14.9525 22.8434 14.9988 22.9937 15C23.1441 15.0011 23.2913 14.9571 23.4163 14.8735L27.5001 12.1514L31.5838 14.8735C31.7116 14.9583 31.8623 15.002 32.0156 14.9986C32.1689 14.9953 32.3175 14.945 32.4414 14.8547C32.5653 14.7644 32.6586 14.6383 32.7087 14.4934C32.7588 14.3484 32.7633 14.1917 32.7216 14.0441L31.3498 9.24475L34.7519 6.18366C34.9746 5.98268 35.0564 5.66922 34.9604 5.38501Z" fill="url(#paint1_linear_301_2771)"/>
<g id="Vector_3" filter="url(#filter0_d_301_2771)">
<path d="M24.9604 10.385C24.9132 10.2462 24.8264 10.1242 24.7108 10.0341C24.5951 9.94402 24.4555 9.88978 24.3094 9.87808L20.0336 9.53837L18.1833 5.44317C18.1244 5.31127 18.0285 5.19924 17.9074 5.1206C17.7862 5.04197 17.6448 5.00008 17.5003 5C17.3558 4.99992 17.2144 5.04165 17.0931 5.12016C16.9718 5.19866 16.8759 5.31058 16.8168 5.44242L14.9665 9.53837L10.6908 9.87808C10.5471 9.88946 10.4098 9.94198 10.2952 10.0294C10.1806 10.1167 10.0936 10.2353 10.0446 10.3708C9.99566 10.5063 9.98677 10.6531 10.019 10.7935C10.0513 10.9339 10.1233 11.0621 10.2265 11.1627L13.3863 14.2425L12.2688 19.0809C12.2349 19.2273 12.2457 19.3806 12.3 19.5208C12.3543 19.661 12.4494 19.7816 12.5731 19.8671C12.6968 19.9525 12.8434 19.9988 12.9937 20C13.1441 20.0011 13.2913 19.9571 13.4163 19.8735L17.5001 17.1514L21.5838 19.8735C21.7116 19.9583 21.8623 20.002 22.0156 19.9986C22.1689 19.9953 22.3175 19.945 22.4414 19.8547C22.5653 19.7644 22.6586 19.6383 22.7087 19.4934C22.7588 19.3484 22.7633 19.1917 22.7216 19.0441L21.3498 14.2448L24.7519 11.1837C24.9746 10.9827 25.0564 10.6692 24.9604 10.385Z" fill="url(#paint2_linear_301_2771)"/>
</g>
</g>
<defs>
<filter id="filter0_d_301_2771" x="7" y="1" width="21" height="21" filterUnits="userSpaceOnUse" color-interpolation-filters="sRGB">
<feFlood flood-opacity="0" result="BackgroundImageFix"/>
<feColorMatrix in="SourceAlpha" type="matrix" values="0 0 0 0 0 0 0 0 0 0 0 0 0 0 0 0 0 0 127 0" result="hardAlpha"/>
<feOffset dy="-1"/>
<feGaussianBlur stdDeviation="1.5"/>
<feComposite in2="hardAlpha" operator="out"/>
<feColorMatrix type="matrix" values="0 0 0 0 0 0 0 0 0 0 0 0 0 0 0 0 0 0 0.35 0"/>
<feBlend mode="normal" in2="BackgroundImageFix" result="effect1_dropShadow_301_2771"/>
<feBlend mode="normal" in="SourceGraphic" in2="effect1_dropShadow_301_2771" result="shape"/>
</filter>
<linearGradient id="paint0_linear_301_2771" x1="12.75" y1="-6.90669e-07" x2="2.625" y2="15" gradientUnits="userSpaceOnUse">
<stop stop-color="#B75CFF"/>
<stop offset="1" stop-color="#671AE4"/>
</linearGradient>
<linearGradient id="paint1_linear_301_2771" x1="32.75" y1="-6.90669e-07" x2="22.625" y2="15" gradientUnits="userSpaceOnUse">
<stop stop-color="#B75CFF"/>
<stop offset="1" stop-color="#671AE4"/>
</linearGradient>
<linearGradient id="paint2_linear_301_2771" x1="22.75" y1="5" x2="12.625" y2="20" gradientUnits="userSpaceOnUse">
<stop stop-color="#B75CFF"/>
<stop offset="1" stop-color="#671AE4"/>
</linearGradient>
</defs>
</svg>
