<svg width="25" height="25" viewBox="0 0 25 25" fill="none" xmlns="http://www.w3.org/2000/svg">
<g id="youtube">
<path id="Vector" d="M23.8569 6.77378C23.5842 5.74731 22.781 4.93889 21.7612 4.66454C19.9127 4.16602 12.5003 4.16602 12.5003 4.16602C12.5003 4.16602 5.08798 4.16602 3.23941 4.66454C2.21957 4.93893 1.41636 5.74731 1.14375 6.77378C0.648438 8.63433 0.648438 12.5162 0.648438 12.5162C0.648438 12.5162 0.648438 16.398 1.14375 18.2586C1.41636 19.2851 2.21957 20.0598 3.23941 20.3342C5.08798 20.8327 12.5003 20.8327 12.5003 20.8327C12.5003 20.8327 19.9126 20.8327 21.7612 20.3342C22.781 20.0598 23.5842 19.2851 23.8569 18.2586C24.3522 16.398 24.3522 12.5162 24.3522 12.5162C24.3522 12.5162 24.3522 8.63433 23.8569 6.77378ZM10.076 16.0406V8.99175L16.2713 12.5163L10.076 16.0406Z" fill="white" fill-opacity="0.5"/>
</g>
</svg>
